<?xml version="1.0" standalone="no"?>
<!DOCTYPE svg PUBLIC "-//W3C//DTD SVG 20010904//EN"
 "http://www.w3.org/TR/2001/REC-SVG-20010904/DTD/svg10.dtd">
<svg version="1.0" xmlns="http://www.w3.org/2000/svg"
 width="604.000000pt" height="604.000000pt" viewBox="0 0 604.000000 604.000000"
 preserveAspectRatio="xMidYMid meet">
<metadata>
Created by potrace 1.14, written by Peter Selinger 2001-2017
</metadata>
<g transform="translate(0.000000,604.000000) scale(0.100000,-0.100000)"
fill="#000000" stroke="none">
<path d="M2818 6036 c-1 -2 -41 -7 -88 -10 -47 -4 -92 -9 -100 -11 -8 -2 -35
-6 -60 -9 -25 -3 -56 -8 -70 -11 -14 -3 -41 -8 -60 -11 -160 -28 -426 -110
-615 -191 -105 -45 -225 -104 -231 -115 -3 -4 -14 -8 -25 -8 -10 0 -19 -4 -19
-10 0 -5 -11 -12 -25 -16 -14 -3 -25 -10 -25 -15 0 -5 -5 -9 -11 -9 -13 0
-243 -150 -247 -162 -2 -4 -10 -8 -17 -8 -7 0 -15 -3 -17 -7 -1 -5 -36 -35
-77 -68 -108 -87 -124 -101 -219 -195 -97 -95 -169 -173 -222 -238 -19 -24
-42 -52 -50 -62 -8 -10 -22 -28 -30 -40 -8 -13 -24 -35 -36 -49 -76 -94 -282
-449 -276 -473 1 -5 -2 -8 -8 -8 -6 0 -9 -3 -8 -7 1 -5 -9 -30 -21 -58 -75
-161 -148 -385 -191 -580 -24 -108 -25 -117 -35 -186 -3 -26 -8 -56 -10 -68
-20 -105 -27 -491 -12 -676 5 -54 10 -101 11 -105 2 -3 6 -27 10 -55 11 -89
56 -300 83 -389 38 -124 76 -234 94 -270 10 -22 19 -43 19 -48 0 -20 132 -289
177 -360 12 -21 23 -40 23 -42 0 -19 207 -309 263 -368 9 -10 17 -20 17 -21 0
-22 317 -336 394 -391 15 -11 39 -30 54 -43 15 -13 45 -36 67 -51 22 -15 45
-32 52 -38 23 -22 220 -144 231 -144 7 0 12 -3 12 -7 0 -5 10 -13 23 -19 12
-6 72 -36 132 -66 170 -86 471 -199 591 -222 10 -2 39 -9 62 -16 91 -24 249
-50 412 -67 138 -15 553 -8 660 12 14 2 48 7 75 11 70 9 76 10 110 17 17 4 41
8 55 11 153 26 441 121 620 204 19 9 37 17 40 18 34 10 50 18 50 25 0 5 6 9
14 9 11 0 61 25 199 102 12 7 24 16 27 19 3 3 12 8 20 12 19 8 53 30 60 38 3
3 22 15 42 27 20 13 63 43 95 67 32 25 71 55 88 67 108 83 328 292 403 386 19
23 43 51 54 64 46 52 108 137 108 148 0 6 5 8 10 5 6 -3 10 0 10 8 0 7 8 22
18 33 10 10 29 37 42 59 13 22 26 42 29 45 4 3 12 16 20 30 76 134 121 213
121 216 0 2 19 43 43 91 23 48 61 138 84 198 22 61 44 119 48 130 5 11 9 25
11 30 23 83 53 190 53 190 0 0 2 7 5 15 6 20 25 107 41 198 3 15 8 50 11 77 3
28 7 56 10 64 18 55 26 512 11 664 -6 67 -12 109 -32 242 -2 11 -4 20 -5 20
-1 0 -4 11 -6 25 -3 23 -8 49 -29 145 -3 17 -17 68 -31 115 -14 46 -28 91 -29
100 -2 8 -18 51 -35 95 -17 44 -35 91 -39 105 -15 45 -104 235 -113 238 -4 2
-8 11 -8 20 0 10 -9 28 -20 42 -11 14 -20 28 -20 32 0 9 -71 131 -80 138 -4 3
-9 12 -12 20 -3 8 -31 50 -62 93 -31 43 -56 81 -56 83 0 3 -6 11 -12 18 -7 7
-26 30 -43 51 -16 21 -39 46 -49 56 -11 11 -17 19 -13 19 24 0 -287 306 -412
406 -13 10 -29 25 -36 32 -8 6 -17 12 -21 12 -3 0 -15 10 -25 22 -11 11 -19
18 -19 14 0 -4 -7 0 -17 9 -22 23 -162 115 -174 115 -5 0 -9 4 -9 8 0 5 -10
14 -22 20 -13 7 -54 29 -93 51 -193 108 -469 226 -625 266 -8 2 -31 9 -50 15
-19 6 -53 15 -75 20 -22 4 -51 11 -65 14 -14 4 -36 8 -50 11 -27 5 -113 22
-145 29 -11 2 -49 7 -85 11 -36 3 -78 9 -95 11 -34 6 -491 14 -497 10z"/>
</g>
</svg>
